<?xml version="1.0" encoding="UTF-8"?><svg id="Capa_1" xmlns="http://www.w3.org/2000/svg" viewBox="0 0 792 612"><defs><style>.cls-1{fill:#fff;}.cls-2{fill:#1d1d1b;}</style></defs><path class="cls-1" d="M347.89,376.48c0-1.62,0-2.93,0-4.24,.09-22.12,.14-44.24,.32-66.36,.01-1.82,.54-3.83,1.44-5.4,10.81-18.92,21.74-37.78,32.67-56.7-.6-1.1-1.16-2.17-1.77-3.23-10.38-18.12-20.79-36.23-31.09-54.39-.81-1.42-1.29-3.23-1.3-4.86-.07-22.73-.04-45.46-.04-68.2,0-.88-.1-1.76-.16-2.67h-14.59c-.07,.75-.18,1.33-.18,1.92,0,22.94-.03,45.87,.05,68.81,0,1.42,.58,2.97,1.28,4.23,10.43,18.56,20.9,37.1,31.43,55.61,1.05,1.85,1.2,3.27,.07,5.23-10.57,18.37-21.05,36.78-31.45,55.24-.85,1.5-1.33,3.42-1.34,5.15-.12,18.57-.12,37.14-.15,55.72,0,4.65,0,9.3,0,14.15h14.79Z"/><path class="cls-1" d="M446.37,376.22c.07-.84,.17-1.43,.16-2.02-.05-22.94-.08-45.87-.21-68.81,0-1.33-.54-2.78-1.21-3.96-6.43-11.39-12.94-22.73-19.43-34.08-2.77-4.84-5.5-9.71-8.36-14.49-.66-1.11-1.91-1.85-2.67-2.92-.65-.92-1.19-2.03-1.43-3.13-.34-1.55-.91-3.4-.38-4.73,1.1-2.8,2.83-5.35,4.34-7.98,9.23-16.09,18.51-32.16,27.66-48.3,.9-1.58,1.43-3.59,1.45-5.4,.23-20.09,.32-40.19,.44-60.28,.02-3.12,0-6.23,0-9.56h-14.88c0,1.36,0,2.55,0,3.74-.1,19.69-.1,39.38-.35,59.06-.07,5.55,.12,10.95-3.18,16.31-10.47,17-20.27,34.42-30.23,51.74-.51,.89-.57,2.54-.09,3.44,2.68,4.99,5.58,9.85,8.42,14.76,7.92,13.69,15.88,27.36,23.73,41.09,.76,1.32,1.16,3.03,1.18,4.57,.18,17.96,.27,35.93,.37,53.89,.03,5.65,0,11.29,0,17.08h14.65Z"/><path class="cls-1" d="M390.42,405.53v-.03c25.98,0,51.97,0,77.95,.01,3.01,0,5.39-1.13,5.82-4.18,.76-5.32,.54-8.27-2.45-9.92-.77-.42-1.71-.62-2.6-.73-1.1-.13-2.23-.06-3.35-.06-50.24,0-100.48,0-150.72,0-1.22,0-2.58-.25-3.61,.21-1.47,.66-3.26,1.58-3.94,2.89-3.24,6.32,.13,11.79,7.07,11.79,25.27,.01,50.55,0,75.82,0Z"/><path class="cls-1" d="M390.12,96.16h0c3.55-.01,7.11-.01,10.66-.01,22.23,0,44.46,.04,66.69-.04,1.6,0,3.65-.37,4.72-1.39,2.96-2.82,2.08-6.64,1.3-10.01-.67-2.92-3.42-3.33-6.14-3.33-51.47,.02-102.93,0-154.4,.03-5.2,0-6.54,1.72-6.51,7.89,.02,5.21,1.56,6.84,6.63,6.85,25.68,.02,51.36,0,77.05,0Z"/><path class="cls-1" d="M387.99,229.3c8.84-19.1,17.35-37.51,25.95-56.08h-51.91c8.67,18.73,17.16,37.07,25.97,56.08Z"/><path class="cls-1" d="M394.41,306.31c2.79-.02,4.98-1.85,5-4.2,.02-2.5-2.26-4.44-5.15-4.39-2.77,.05-4.86,1.95-4.82,4.39,.04,2.44,2.15,4.22,4.97,4.2Z"/><path class="cls-1" d="M379.98,292.57c2.97-.02,5.05-1.92,4.97-4.53-.08-2.41-2.29-4.29-4.97-4.22-2.76,.07-4.84,1.96-4.83,4.38,.01,2.43,2.17,4.39,4.83,4.37Z"/><path class="cls-1" d="M399.57,275.02c-2.75-.06-4.91,1.72-5.01,4.14-.1,2.47,1.87,4.42,4.6,4.56,2.83,.14,5.21-1.82,5.22-4.28,0-2.4-2.12-4.36-4.82-4.42Z"/><path class="cls-1" d="M384.24,324.07c2.78,.04,4.91-1.73,5.02-4.16,.12-2.62-1.99-4.56-4.93-4.53-2.76,.02-4.9,1.9-4.91,4.29,0,2.43,2.1,4.36,4.81,4.4Z"/><path class="cls-1" d="M381.5,274.36c2.09,.01,5-2.57,5.02-4.45,.03-2.19-2.54-4.21-5.51-4.33-2.19-.09-4.6,2.28-4.54,4.47,.07,2.34,2.34,4.29,5.03,4.31Z"/><path class="cls-1" d="M393.41,256.96c.82,.88,1.41,1.51,2.01,2.14-1.54-5.66-3.38-5.44-6.06-4.89-2.2,.45-3.86,3.24-3.02,5.47,1.27,3.36,4.28,2.19,7.07,2.35v-5.06Z"/><path d="M339.78,376.48h-14.79c0-4.85,0-9.5,0-14.15,.03-18.57,.02-37.14,.15-55.72,.01-1.73,.49-3.65,1.34-5.15,10.4-18.46,20.88-36.88,31.45-55.24,1.12-1.95,.98-3.38-.07-5.23-10.53-18.51-21-37.04-31.43-55.61-.71-1.26-1.28-2.82-1.28-4.23-.08-22.94-.06-45.87-.05-68.81,0-.58,.11-1.17,.18-1.92h14.59c.06,.91,.16,1.79,.16,2.67,0,22.73-.04,45.46,.04,68.2,0,1.63,.49,3.44,1.3,4.86,10.31,18.16,20.72,36.27,31.09,54.39,.6,1.05,1.17,2.13,1.77,3.23-10.92,18.92-21.85,37.77-32.67,56.7-.9,1.57-1.43,3.59-1.44,5.4-.18,22.12-.23,44.24-.32,66.36,0,1.31,0,2.62,0,4.24Z"/><path d="M454.48,376.22h-14.65c0-5.78,.03-11.43,0-17.08-.09-17.96-.18-35.93-.37-53.89-.02-1.54-.42-3.24-1.18-4.57-7.85-13.73-15.8-27.4-23.73-41.09-2.84-4.9-5.74-9.77-8.42-14.76-.48-.89-.43-2.54,.09-3.44,9.96-17.31,19.76-34.73,30.23-51.74,3.3-5.36,3.12-10.76,3.18-16.31,.24-19.69,.25-39.38,.35-59.06,0-1.19,0-2.38,0-3.74h14.88c0,3.33,.02,6.45,0,9.56-.12,20.09-.22,40.19-.44,60.28-.02,1.82-.56,3.82-1.45,5.4-9.15,16.14-18.43,32.21-27.66,48.3-1.51,2.63-3.24,5.18-4.34,7.98-.52,1.33,.05,3.17,.38,4.73,.24,1.1,.77,2.21,1.43,3.13,.76,1.07,2.01,1.81,2.67,2.92,2.86,4.79,5.59,9.65,8.36,14.49,6.49,11.35,13,22.69,19.43,34.08,.67,1.18,1.2,2.63,1.21,3.96,.13,22.94,.16,45.87,.21,68.81,0,.59-.09,1.19-.16,2.02Z"/><path d="M390.42,408.78c-25.27,0-50.55,0-75.82,0-6.95,0-10.32-5.47-7.07-11.79,.67-1.31,2.46-2.23,3.94-2.89,1.03-.46,2.39-.21,3.61-.21,50.24,0,100.48,0,150.72,0,1.12,0,2.24-.07,3.35,.06,.89,.1,1.83,.3,2.6,.73,3,1.65,3.21,4.6,2.45,9.92-.43,3.05-2.81,4.18-5.82,4.18-25.98-.02-51.97-.01-77.95-.01v.03Z"/><path d="M390.12,92.92c-25.68,0-51.36,0-77.05,0-5.07,0-6.61-1.64-6.63-6.85-.03-6.17,1.31-7.89,6.51-7.89,51.47-.03,102.93-.01,154.4-.03,2.71,0,5.46,.41,6.14,3.33,.78,3.37,1.66,7.19-1.3,10.01-1.06,1.01-3.11,1.38-4.72,1.39-22.23,.08-44.46,.05-66.69,.04-3.55,0-7.11,0-10.66,0h0Z"/><path d="M375.11,292.57c-2.66,.02-4.82-1.94-4.83-4.37-.01-2.42,2.07-4.3,4.83-4.38,2.68-.07,4.89,1.81,4.97,4.22,.08,2.61-2,4.51-4.97,4.53Z"/><path d="M402.81,273.08c2.69,.06,4.83,2.02,4.82,4.42,0,2.46-2.4,4.42-5.22,4.28-2.73-.14-4.7-2.09-4.6-4.56,.1-2.42,2.26-4.21,5.01-4.14Z"/><path d="M381.5,274.36c-2.69-.02-4.97-1.97-5.03-4.31-.06-2.19,2.35-4.56,4.54-4.47,2.97,.12,5.54,2.14,5.51,4.33-.02,1.88-2.93,4.46-5.02,4.45Z"/><path d="M393.41,245.6v5.06c-2.78-.16-5.8,1.01-7.07-2.35-.84-2.23,.81-5.02,3.02-5.47,2.67-.54,4.51-.77,6.06,4.89-.59-.63-1.19-1.26-2.01-2.14Z"/><path class="cls-1" d="M382.52,186.3h10.92c-1.77,3.87-3.41,7.46-5.43,11.89-1.99-4.32-3.67-7.95-5.49-11.89Z"/><path d="M392.25,230.71c-.12-5.37-.24-10.74-.35-16.11-.41-19.8-.79-39.59-1.26-59.38-.05-1.9,.22-3.01,2.55-4.01,4.31-1.86,6.06-5.53,6.51-9.54,.57-5.16-.87-9.63-5.87-12.6-.17-.1-.34-.24-.53-.26-3.26-.3-3.48-2.27-3.23-4.62,.13-1.19-.07-2.4-.13-3.71-.83,.12-1.56,.23-2.46,.36l.07,7.23c-5.92,2.03-8.47,6.06-8.86,11.14-.39,5.04,1.2,9.39,6.32,12.15,.12,.06,.22,.18,.34,.18,3.14,.21,2.95,2.21,3,4.26,.59,24.48,1.24,48.98,1.86,73.48,.01,.52-.02,1.05-.36,1.63-.51-1.58-1.05-3.16-1.51-4.75-2.69-9.25-5.06-18.57-8.09-27.69-5.84-17.54-14.85-33.58-27.75-47.62-1.6-1.73-3.26-3.42-5-5.03-1.49-1.37-1.67-2.69-.64-4.49,3.66-6.41,7.41-12.82,10.65-19.42,4.52-9.23,7.38-18.86,8.82-28.74,.06-.41,.15-.81,.26-1.36,4.93-.09,9.78-.19,14.62-.27,8.97-.15,17.94-.28,26.91-.46,1.14-.02,1.64,.18,1.87,1.27,3.31,16.1,10.45,30.74,19.88,44.59,3.48,5.14,3.34,4.55-.8,9.23-8.77,9.88-15.53,20.68-20.82,32.18-5.91,12.8-9.53,26.03-12.13,39.5-.84,4.34-2.22,8.6-3.35,12.89l-.51-.05Z"/><g><path d="M380.53,366.71l-24.87,11.32-.32-.23c11.31-28.95,22.62-57.91,34.03-87.12l40.06,88.05c-9.06-4.1-17.88-8.09-26.93-12.18,.53,13.1,1.05,26.01,1.58,39.04-7.33,.1-14.56,.19-21.94,.29-.54-13.03-1.07-25.94-1.61-39.17Zm20.05-3l25.31,11.44-36.37-79.94c-10.37,26.56-20.64,52.86-30.92,79.16l.33,.25,23.27-10.59c.55,13.46,1.1,26.67,1.65,40.02,6.17-.08,12.22-.17,18.34-.25-.54-13.42-1.08-26.65-1.63-40.11Z"/><path d="M380.59,407.52l-1.58-38.33-23.55,10.71-2.02-1.48,.39-1.21,35.43-90.69,43.44,95.48-28.47-12.88,1.54,38.08-25.18,.33Zm3.15-45.96l1.68,40.86,15.1-.2-1.67-41.07,23.78,10.75-32.99-72.52-28.26,72.35,22.35-10.17Z"/></g><g><path d="M220.34,504.4c-26.34-22.56-47.79-49.2-63.89-80.19-19.47-37.48-29.82-77.36-30.5-119.58-.98-61.88,16.5-118.2,53.93-167.5,12.38-16.31,25.88-30.82,40.46-43.52v-21.95c-12.49,9.67-24.39,20.49-35.53,32.51-104.48,112.77-102.3,291.01,10.64,400.92,7.96,7.77,16.28,14.96,24.88,21.63v-22.32Z"/><path d="M590.17,87.29c-5.99-5.51-12.17-10.71-18.51-15.62v22.24c28.88,24.35,51.75,53.87,67.86,88.49,33.28,71.53,35.59,144.4,6.82,217.95-15.91,40.69-41.07,75.06-74.14,103.46-.18,.15-.37,.3-.55,.45v22.39c12.6-9.77,24.59-20.7,35.8-32.86,106.45-115.41,101.45-297.21-17.29-406.5Z"/></g><g><g><path class="cls-2" d="M296.63,472.8l-11.75-38.22h-.17v35.57h4.26v2.65h-12.12v-2.65h4.57v-35.96h-4.57v-2.65h12.06l10.15,33.4,10.12-33.4h11.78v2.65h-4.57v35.96h4.57v2.65h-13.87v-2.65h4.4v-35.57h-.11l-11.61,38.22h-3.13Z"/><path class="cls-2" d="M321.77,473.61h-15.49v-4.27h4.4v-29.67l-10.31,33.94h-4.33l-10.51-34.18v29.91h4.26v4.27h-13.74v-4.27h4.57v-34.34h-4.57v-4.27h13.47l9.54,31.41,9.52-31.41h13.19v4.27h-4.57v34.34h4.57v4.27Zm-13.87-1.62h12.24v-1.03h-4.57v-37.58h4.57v-1.03h-10.37l-10.72,35.38-10.75-35.38h-10.65v1.03h4.57v37.58h-4.57v1.03h10.5v-1.03h-4.26v-37.19h1.58l11.75,38.22h1.93l11.61-38.22h1.52v37.19h-4.4v1.03Z"/></g><g><path class="cls-2" d="M349.7,470.15v-13.1h4.26v15.75h-29.85v-2.65h4.28v-35.96h-4.28v-2.65h28.58v13.44h-4.03v-10.79h-15.25v15.36h10.91v3.21h-10.91v17.39h16.29Z"/><path class="cls-2" d="M354.77,473.61h-31.47v-4.27h4.28v-34.34h-4.28v-4.27h30.2v15.07h-5.65v-10.79h-13.62v13.74h10.91v4.84h-10.91v15.77h14.67v-13.1h5.88v17.38Zm-29.85-1.62h28.22v-14.13h-2.63v13.1h-17.91v-19.01h10.91v-1.59h-10.91v-16.98h16.87v10.79h2.41v-11.82h-26.96v1.03h4.28v37.58h-4.28v1.03Z"/></g><g><path class="cls-2" d="M378.14,472.8l-11.75-38.22h-.17v35.57h4.25v2.65h-12.12v-2.65h4.57v-35.96h-4.57v-2.65h12.06l10.15,33.4,10.12-33.4h11.78v2.65h-4.57v35.96h4.57v2.65h-13.87v-2.65h4.4v-35.57h-.11l-11.61,38.22h-3.13Z"/><path class="cls-2" d="M403.27,473.61h-15.49v-4.27h4.4v-29.67l-10.31,33.94h-4.33l-10.51-34.18v29.91h4.25v4.27h-13.74v-4.27h4.57v-34.34h-4.57v-4.27h13.47l9.54,31.41,9.52-31.41h13.19v4.27h-4.57v34.34h4.57v4.27Zm-13.87-1.62h12.24v-1.03h-4.57v-37.58h4.57v-1.03h-10.37l-10.72,35.38-10.75-35.38h-10.65v1.03h4.57v37.58h-4.57v1.03h10.5v-1.03h-4.25v-37.19h1.58l11.75,38.22h1.93l11.61-38.22h1.52v37.19h-4.4v1.03Z"/></g><g><path class="cls-2" d="M422.83,430.61c5.49,0,9.58,1.79,12.27,5.36,2.7,3.57,4.04,8.98,4.04,16.23s-1.34,12.65-4.03,16.21c-2.69,3.55-6.76,5.33-12.23,5.33s-9.63-1.77-12.32-5.31c-2.69-3.54-4.03-8.95-4.03-16.22s1.34-12.69,4.03-16.25c2.69-3.56,6.77-5.34,12.26-5.34Zm0,2.37c-3.74,0-6.49,1.56-8.26,4.68-1.77,3.12-2.65,7.97-2.65,14.54s.88,11.44,2.63,14.53,4.51,4.64,8.27,4.64,6.5-1.55,8.29-4.66c1.78-3.11,2.68-7.94,2.68-14.5s-.89-11.4-2.68-14.53c-1.79-3.13-4.55-4.69-8.29-4.69Z"/><path class="cls-2" d="M422.89,474.54c-5.77,0-10.13-1.9-12.96-5.63-2.78-3.67-4.2-9.29-4.2-16.71s1.41-13.05,4.19-16.74c2.84-3.76,7.18-5.66,12.91-5.66s10.08,1.91,12.92,5.68c2.79,3.7,4.21,9.32,4.21,16.72s-1.41,13.02-4.19,16.69c-2.84,3.75-7.17,5.65-12.88,5.65Zm-.06-43.12c-5.27,0-9.06,1.64-11.61,5.02-2.57,3.4-3.87,8.7-3.87,15.76s1.3,12.35,3.87,15.73c2.55,3.36,6.36,4.99,11.67,4.99s9.04-1.64,11.58-5c2.56-3.39,3.86-8.68,3.86-15.72s-1.3-12.33-3.88-15.74c-2.56-3.39-6.36-5.03-11.63-5.03Zm0,40.75c-4.05,0-7.07-1.7-8.98-5.05-1.82-3.2-2.74-8.22-2.74-14.93s.93-11.71,2.75-14.94c1.91-3.38,4.93-5.09,8.96-5.09s7.06,1.72,8.99,5.1c1.85,3.24,2.78,8.26,2.78,14.93s-.94,11.68-2.79,14.9c-1.93,3.37-4.96,5.07-8.99,5.07Zm0-38.38c-3.46,0-5.92,1.4-7.55,4.27-1.69,2.98-2.54,7.74-2.54,14.14s.85,11.18,2.53,14.13c1.62,2.84,4.09,4.22,7.57,4.22s5.94-1.39,7.58-4.26c1.7-2.97,2.57-7.71,2.57-14.1s-.86-11.14-2.57-14.13c-1.65-2.88-4.12-4.28-7.58-4.28Z"/></g><g><path class="cls-2" d="M458.12,431.54c4.15,0,7.24,.81,9.26,2.44,2.02,1.62,3.03,4.12,3.03,7.48,0,2.65-.55,4.76-1.65,6.34-1.1,1.58-2.8,2.7-5.12,3.35,2.87,.28,4.94,1.05,6.2,2.31,1.26,1.26,2.06,3.35,2.4,6.28l.59,4.96c.02,.15,.04,.35,.06,.59,.36,3.27,1.35,4.9,2.99,4.9h1.92v2.59h-2.37c-2.88,0-4.79-.41-5.74-1.24-.95-.83-1.64-2.95-2.07-6.37l-.51-4.45c-.39-3.31-1.17-5.46-2.32-6.47-1.16-1-3.3-1.51-6.44-1.51h-5.5v17.39h4.34v2.65h-13.64v-2.65h4.28v-35.96h-4.28v-2.65h14.57Zm-.93,2.65h-4.34v16.15h4.28c2.67,0,4.68-.66,6.03-1.97,1.35-1.31,2.03-3.27,2.03-5.86,0-2.86-.65-4.96-1.94-6.3-1.3-1.34-3.32-2.02-6.06-2.02Z"/><path class="cls-2" d="M478.6,473.61h-3.18c-3.11,0-5.16-.47-6.27-1.44-1.13-.98-1.88-3.17-2.34-6.88l-.51-4.46c-.46-3.84-1.37-5.35-2.05-5.95-1-.87-2.99-1.31-5.91-1.31h-4.68v15.77h4.34v4.27h-15.26v-4.27h4.28v-34.34h-4.28v-4.27h15.38c4.32,0,7.61,.88,9.77,2.62,2.21,1.78,3.33,4.51,3.33,8.11,0,2.8-.6,5.09-1.79,6.8-.72,1.04-1.69,1.9-2.89,2.58,1.66,.45,2.96,1.13,3.88,2.05,1.4,1.41,2.26,3.62,2.63,6.76l.59,4.96c.02,.16,.04,.37,.06,.63,.21,1.88,.75,4.15,2.18,4.15h2.73v4.22Zm-26.56-21.66h6.31c3.37,0,5.65,.56,6.97,1.71,1.33,1.15,2.17,3.44,2.6,6.98l.51,4.46c.53,4.19,1.35,5.46,1.8,5.85,.54,.47,1.89,1.04,5.2,1.04h1.56v-.97h-1.11c-2.11,0-3.39-1.89-3.79-5.63-.02-.25-.04-.44-.05-.58l-.59-4.96c-.32-2.73-1.04-4.69-2.16-5.81-1.12-1.12-3.04-1.82-5.71-2.08l-4.25-.42,4.11-1.17c2.11-.6,3.69-1.62,4.67-3.04,1-1.43,1.5-3.41,1.5-5.88,0-3.13-.89-5.37-2.73-6.85-1.86-1.5-4.81-2.26-8.75-2.26h-13.76v1.03h4.28v37.58h-4.28v1.03h12.02v-1.03h-4.34v-19.01Zm5.09-.8h-5.09v-17.77h5.15c2.96,0,5.19,.76,6.64,2.26,1.44,1.49,2.17,3.8,2.17,6.86,0,2.81-.77,4.98-2.28,6.44-1.5,1.46-3.72,2.2-6.6,2.2Zm-3.47-1.62h3.47c2.44,0,4.28-.59,5.47-1.74,1.18-1.15,1.78-2.93,1.78-5.28,0-2.62-.58-4.55-1.72-5.74-1.13-1.17-2.97-1.77-5.48-1.77h-3.53v14.53Z"/></g><g><path class="cls-2" d="M479.28,472.8v-2.65h5.36v-35.96h-5.36v-2.65h15.98v2.65h-5.35v35.96h5.35v2.65h-15.98Z"/><path class="cls-2" d="M496.08,473.61h-17.6v-4.27h5.36v-34.34h-5.36v-4.27h17.6v4.27h-5.35v34.34h5.35v4.27Zm-15.98-1.62h14.36v-1.03h-5.35v-37.58h5.35v-1.03h-14.36v1.03h5.36v37.58h-5.36v1.03Z"/></g><g><path class="cls-2" d="M510.62,431.54h6.23l10.57,38.61h4.31v2.65h-13.89v-2.65h4.31l-3.1-11.78h-12.06l-3.02,11.78h4.28v2.65h-12v-2.65h4.25l10.12-38.61Zm2.14,3.75l-4.85,19.73h10.09l-5.24-19.73Z"/><path class="cls-2" d="M532.54,473.61h-15.52v-4.27h4.07l-2.67-10.16h-10.81l-2.6,10.16h4.05v4.27h-13.63v-4.27h4.44l10.12-38.61h7.47l10.57,38.61h4.5v4.27Zm-13.89-1.62h12.27v-1.03h-4.12l-10.57-38.61h-3.41l6.24,23.48h-12.18l5.77-23.48h-1.4l-10.12,38.61h-4.07v1.03h10.38v-1.03h-4.52l3.43-13.4h13.32l3.53,13.4h-4.55v1.03Zm-9.7-17.78h8l-4.16-15.64-3.84,15.64Z"/></g></g><g><g><path class="cls-2" d="M297,489.55v-4.09h3.86v14.37h-3.86c0-.15,0-.36,.03-.62,.02-.26,.03-.46,.03-.59,0-3.72-.88-6.58-2.64-8.6-1.76-2.01-4.24-3.02-7.45-3.02-3.95,0-6.74,1.44-8.38,4.33-1.64,2.88-2.47,7.92-2.47,15.12,0,6.56,.86,11.29,2.58,14.19,1.72,2.9,4.5,4.35,8.33,4.35s6.71-1.32,8.53-3.96c1.81-2.64,2.72-6.77,2.72-12.39h3.58v.4c0,6.11-1.27,10.73-3.8,13.88-2.54,3.15-6.27,4.72-11.19,4.72-5.82,0-9.99-1.69-12.48-5.06-2.5-3.37-3.75-9.08-3.75-17.12,0-7.35,1.22-12.69,3.65-16.04,2.43-3.34,6.3-5.02,11.6-5.02,2.59,0,4.82,.43,6.69,1.28,1.87,.86,3.35,2.14,4.44,3.85Z"/><path class="cls-2" d="M286.85,528.46c-6.07,0-10.49-1.81-13.14-5.39-2.63-3.55-3.91-9.31-3.91-17.6,0-7.49,1.28-13.04,3.81-16.51,2.58-3.55,6.71-5.35,12.25-5.35,2.7,0,5.06,.46,7.03,1.36,1.26,.57,2.36,1.34,3.29,2.28v-2.59h5.48v16h-5.48v-.81c0-.17,0-.39,.03-.68,.02-.24,.03-.41,.03-.53,0-3.5-.82-6.21-2.44-8.06-1.61-1.84-3.85-2.74-6.84-2.74-3.67,0-6.18,1.28-7.68,3.92-1.57,2.75-2.36,7.7-2.36,14.72,0,6.38,.83,11.01,2.47,13.78,1.58,2.66,4.07,3.96,7.63,3.96s6.19-1.18,7.86-3.61c1.71-2.49,2.58-6.5,2.58-11.93v-.81h5.2v1.21c0,6.27-1.34,11.11-3.98,14.39-2.69,3.33-6.66,5.02-11.82,5.02Zm-.99-43.23c-5.07,0-8.65,1.53-10.94,4.68-2.32,3.19-3.49,8.42-3.49,15.56,0,7.83,1.21,13.42,3.59,16.64,2.32,3.14,6.31,4.73,11.83,4.73,4.71,0,8.16-1.45,10.56-4.42,2.35-2.91,3.57-7.27,3.62-12.95h-1.96c-.09,5.35-1.05,9.4-2.86,12.03-1.97,2.86-5.06,4.31-9.19,4.31s-7.16-1.6-9.03-4.75c-1.81-3.06-2.69-7.84-2.69-14.6,0-7.41,.84-12.49,2.57-15.52,1.79-3.14,4.85-4.74,9.09-4.74,3.44,0,6.16,1.11,8.06,3.29,1.88,2.15,2.84,5.23,2.84,9.13,0,.1,0,.23-.01,.4h2.2v-12.75h-2.24v6.05l-1.5-2.34c-1-1.57-2.38-2.76-4.09-3.55-1.76-.8-3.89-1.21-6.36-1.21Z"/></g><g><path class="cls-2" d="M331.75,524.07v-13.1h4.26v15.75h-29.85v-2.65h4.28v-35.96h-4.28v-2.65h28.58v13.44h-4.03v-10.79h-15.25v15.36h10.91v3.21h-10.91v17.39h16.29Z"/><path class="cls-2" d="M336.82,527.54h-31.47v-4.27h4.28v-34.34h-4.28v-4.27h30.2v15.07h-5.65v-10.79h-13.62v13.74h10.91v4.84h-10.91v15.77h14.67v-13.1h5.88v17.38Zm-29.85-1.62h28.22v-14.13h-2.63v13.1h-17.91v-19.01h10.91v-1.59h-10.91v-16.98h16.87v10.79h2.41v-11.82h-26.95v1.03h4.28v37.58h-4.28v1.03Z"/></g><g><path class="cls-2" d="M348.12,488.79v35.28h4.34v2.65h-12.06v-2.65h4.28v-35.96h-4.28v-2.65h11.44l18.35,32.44v-29.79h-4.34v-2.65h12.06v2.65h-4.26v38.61h-4.17l-21.36-37.93Z"/><path class="cls-2" d="M374.47,527.54h-5.46l-20.08-35.65v31.38h4.34v4.27h-13.68v-4.27h4.28v-34.34h-4.28v-4.27h12.73l17.06,30.17v-25.9h-4.34v-4.27h13.68v4.27h-4.26v38.61Zm-4.51-1.62h2.89v-38.61h4.26v-1.03h-10.44v1.03h4.34v33.68l-19.63-34.71h-3.73l22.32,39.64Zm-28.75,0h10.44v-1.03h-4.34v-38.61h-6.1v1.03h4.28v37.58h-4.28v1.03Z"/></g><g><path class="cls-2" d="M379.94,526.72v-2.65h5.36v-35.96h-5.36v-2.65h15.98v2.65h-5.35v35.96h5.35v2.65h-15.98Z"/><path class="cls-2" d="M396.73,527.54h-17.6v-4.27h5.36v-34.34h-5.36v-4.27h17.6v4.27h-5.35v34.34h5.35v4.27Zm-15.98-1.62h14.36v-1.03h-5.35v-37.58h5.35v-1.03h-14.36v1.03h5.36v37.58h-5.36v1.03Z"/></g><g><path class="cls-2" d="M428.58,522.27c-1.13,1.88-2.65,3.25-4.57,4.13-1.92,.87-4.38,1.31-7.38,1.31-5.88,0-10.18-1.78-12.89-5.33-2.72-3.55-4.07-9.17-4.07-16.85s1.34-12.74,4.03-16.06c2.69-3.33,7-4.99,12.94-4.99,2.72,0,5.05,.41,6.97,1.23s3.53,2.08,4.81,3.79v-4.09h3.97v16.49h-4.03v-.68c0-4.83-.93-8.43-2.79-10.81-1.86-2.38-4.66-3.56-8.4-3.56-4.19,0-7.21,1.46-9.06,4.37s-2.78,7.67-2.78,14.26,1.06,11.57,3.18,14.82c2.12,3.25,5.34,4.88,9.64,4.88,3.25,0,5.8-1.06,7.65-3.18s2.78-5.04,2.78-8.76h-9.41v-2.71h17.39v2.71h-3.75v13.5h-4.23v-4.45Z"/><path class="cls-2" d="M416.63,528.52c-6.12,0-10.67-1.9-13.54-5.65-2.81-3.68-4.24-9.51-4.24-17.35s1.42-13.12,4.21-16.57c2.83-3.51,7.4-5.29,13.57-5.29,2.82,0,5.27,.43,7.29,1.29,1.38,.58,2.61,1.39,3.68,2.41v-2.77h5.6v18.11h-5.65v-1.49c0-4.62-.88-8.09-2.62-10.31-1.71-2.19-4.25-3.25-7.76-3.25-3.93,0-6.67,1.31-8.38,3.99-1.76,2.77-2.65,7.42-2.65,13.83s1.03,11.28,3.05,14.38c1.98,3.03,4.91,4.51,8.96,4.51,3.03,0,5.33-.95,7.04-2.91,1.58-1.81,2.44-4.3,2.56-7.42h-9.4v-4.33h19.01v4.33h-3.75v13.5h-5.85v-2.84c-.97,1.03-2.11,1.85-3.42,2.45-2.01,.92-4.61,1.38-7.72,1.38Zm0-43.23c-5.65,0-9.79,1.58-12.3,4.69-2.55,3.16-3.85,8.39-3.85,15.55s1.31,12.97,3.91,16.36c2.54,3.32,6.66,5.01,12.25,5.01,2.88,0,5.25-.42,7.05-1.24,1.76-.8,3.17-2.08,4.21-3.81l1.51-2.51v6.57h2.6v-13.5h3.75v-1.08h-15.77v1.08h9.41v.81c0,3.9-1,7.03-2.98,9.3-2,2.3-4.78,3.46-8.26,3.46-4.57,0-8.05-1.76-10.32-5.24-2.2-3.37-3.32-8.51-3.32-15.27s.95-11.62,2.9-14.69c2-3.15,5.28-4.75,9.75-4.75,3.98,0,7.02,1.3,9.04,3.88,1.95,2.49,2.94,6.25,2.96,11.17h2.41v-14.86h-2.35v5.71l-1.46-1.95c-1.19-1.58-2.69-2.77-4.47-3.53-1.82-.77-4.06-1.16-6.66-1.16Z"/></g><g><path class="cls-2" d="M454.34,485.46c4.15,0,7.24,.81,9.26,2.44,2.02,1.62,3.03,4.12,3.03,7.48,0,2.65-.55,4.76-1.65,6.34-1.1,1.58-2.8,2.7-5.12,3.35,2.87,.28,4.94,1.05,6.2,2.31,1.26,1.26,2.06,3.35,2.4,6.28l.59,4.96c.02,.15,.04,.35,.06,.59,.36,3.27,1.35,4.9,2.99,4.9h1.92v2.59h-2.37c-2.88,0-4.79-.41-5.74-1.24-.95-.83-1.64-2.95-2.07-6.37l-.51-4.45c-.39-3.31-1.17-5.46-2.32-6.47-1.16-1-3.3-1.51-6.44-1.51h-5.5v17.39h4.34v2.65h-13.64v-2.65h4.28v-35.96h-4.28v-2.65h14.57Zm-.93,2.65h-4.34v16.15h4.28c2.67,0,4.68-.66,6.03-1.97,1.35-1.31,2.03-3.27,2.03-5.86,0-2.86-.65-4.96-1.94-6.3-1.3-1.34-3.32-2.02-6.06-2.02Z"/><path class="cls-2" d="M474.83,527.54h-3.18c-3.11,0-5.16-.47-6.27-1.44-1.13-.98-1.88-3.17-2.34-6.88l-.51-4.46c-.46-3.84-1.37-5.35-2.05-5.95-1-.87-2.99-1.31-5.91-1.31h-4.68v15.77h4.34v4.27h-15.26v-4.27h4.28v-34.34h-4.28v-4.27h15.38c4.32,0,7.61,.88,9.77,2.62,2.21,1.78,3.33,4.51,3.33,8.11,0,2.8-.6,5.09-1.79,6.8-.72,1.04-1.69,1.9-2.89,2.58,1.66,.45,2.96,1.13,3.88,2.05,1.4,1.41,2.26,3.62,2.63,6.76l.59,4.96c.02,.16,.04,.37,.06,.63,.21,1.88,.75,4.15,2.18,4.15h2.73v4.22Zm-26.56-21.66h6.31c3.37,0,5.65,.56,6.97,1.71,1.33,1.15,2.17,3.44,2.6,6.98l.51,4.46c.53,4.19,1.35,5.46,1.8,5.85,.54,.47,1.89,1.04,5.2,1.04h1.56v-.97h-1.11c-2.11,0-3.39-1.89-3.79-5.63-.02-.25-.04-.44-.05-.58l-.59-4.96c-.32-2.73-1.04-4.69-2.16-5.81-1.12-1.12-3.04-1.82-5.71-2.08l-4.25-.42,4.11-1.17c2.11-.6,3.69-1.62,4.67-3.04,1-1.43,1.5-3.41,1.5-5.88,0-3.13-.89-5.37-2.73-6.85-1.86-1.5-4.81-2.26-8.75-2.26h-13.76v1.03h4.28v37.58h-4.28v1.03h12.02v-1.03h-4.34v-19.01Zm5.09-.8h-5.09v-17.77h5.15c2.96,0,5.19,.76,6.64,2.26,1.44,1.5,2.17,3.8,2.17,6.86,0,2.81-.77,4.98-2.28,6.44-1.5,1.46-3.72,2.2-6.6,2.2Zm-3.47-1.62h3.47c2.44,0,4.28-.59,5.47-1.74,1.18-1.15,1.78-2.93,1.78-5.28,0-2.62-.58-4.55-1.72-5.74-1.13-1.17-2.97-1.77-5.48-1.77h-3.53v14.53Z"/></g><g><path class="cls-2" d="M488.67,485.46h6.23l10.57,38.61h4.31v2.65h-13.89v-2.65h4.31l-3.1-11.78h-12.06l-3.02,11.78h4.28v2.65h-12v-2.65h4.25l10.12-38.61Zm2.14,3.75l-4.85,19.73h10.09l-5.24-19.73Z"/><path class="cls-2" d="M510.59,527.54h-15.52v-4.27h4.07l-2.67-10.16h-10.81l-2.6,10.16h4.05v4.27h-13.63v-4.27h4.44l10.12-38.61h7.47l10.57,38.61h4.5v4.27Zm-13.89-1.62h12.27v-1.03h-4.12l-10.57-38.61h-3.41l6.24,23.48h-12.18l5.77-23.48h-1.4l-10.12,38.61h-4.07v1.03h10.38v-1.03h-4.52l3.43-13.4h13.32l3.53,13.4h-4.55v1.03Zm-9.7-17.78h8l-4.16-15.64-3.84,15.64Z"/></g><g><path class="cls-2" d="M526.07,524.07v2.65h-14.26v-2.65h4.28v-35.96h-4.28v-2.65h26.63v13.39h-4.11v-10.74h-13.22v15.36h10.91v3.47h-10.91v17.13h4.96Z"/><path class="cls-2" d="M526.88,527.54h-15.88v-4.27h4.28v-34.34h-4.28v-4.27h28.26v15.01h-5.74v-10.74h-11.59v13.74h10.91v5.09h-10.91v15.51h4.96v4.27Zm-14.26-1.62h12.64v-1.03h-4.96v-18.76h10.91v-1.84h-10.91v-16.98h14.84v10.74h2.49v-11.76h-25.01v1.03h4.28v37.58h-4.28v1.03Z"/></g></g></svg>